<svg width="16" height="16" viewBox="0 0 16 16" fill="none" xmlns="http://www.w3.org/2000/svg">
<g clip-path="url(#clip0_477_3431)">
<path d="M7.03611 1.09682C7.20556 0.728069 7.07778 0.274944 6.75278 0.0843188C6.42778 -0.106306 6.02222 0.0374438 5.85278 0.403069L3.26667 5.99994H0.888889C0.397222 5.99994 0 6.44682 0 6.99994C0 7.55307 0.397222 7.99994 0.888889 7.99994L2.33056 14.4843C2.52778 15.3749 3.23889 15.9999 4.05556 15.9999H11.9444C12.7611 15.9999 13.4722 15.3749 13.6694 14.4843L15.1111 7.99994C15.6028 7.99994 16 7.55307 16 6.99994C16 6.44682 15.6028 5.99994 15.1111 5.99994H12.7333L10.1472 0.403069C9.97778 0.0374438 9.575 -0.106306 9.24722 0.0843188C8.91944 0.274944 8.79445 0.728069 8.96389 1.09682L11.2306 5.99994H4.76944L7.03611 1.09682ZM5.33333 9.49994V12.4999C5.33333 12.7749 5.13333 12.9999 4.88889 12.9999C4.64444 12.9999 4.44444 12.7749 4.44444 12.4999V9.49994C4.44444 9.22495 4.64444 8.99994 4.88889 8.99994C5.13333 8.99994 5.33333 9.22495 5.33333 9.49994ZM8 8.99994C8.24444 8.99994 8.44444 9.22495 8.44444 9.49994V12.4999C8.44444 12.7749 8.24444 12.9999 8 12.9999C7.75556 12.9999 7.55556 12.7749 7.55556 12.4999V9.49994C7.55556 9.22495 7.75556 8.99994 8 8.99994ZM11.5556 9.49994V12.4999C11.5556 12.7749 11.3556 12.9999 11.1111 12.9999C10.8667 12.9999 10.6667 12.7749 10.6667 12.4999V9.49994C10.6667 9.22495 10.8667 8.99994 11.1111 8.99994C11.3556 8.99994 11.5556 9.22495 11.5556 9.49994Z" fill="#FFF9F9"/>
</g>
<defs>
<clipPath id="clip0_477_3431">
<rect width="16" height="16" fill="white"/>
</clipPath>
</defs>
</svg>
