<svg width="16" height="16" viewBox="0 0 16 16" fill="none" xmlns="http://www.w3.org/2000/svg">
<path d="M1.4875 9.38669L7.13438 14.6586C7.36875 14.8773 7.67812 14.9992 8 14.9992C8.32187 14.9992 8.63125 14.8773 8.86563 14.6586L14.5125 9.38669C15.4625 8.50232 16 7.26169 16 5.96482V5.78357C16 3.59919 14.4219 1.73669 12.2688 1.37732C10.8438 1.13982 9.39375 1.60544 8.375 2.62419L8 2.99919L7.625 2.62419C6.60625 1.60544 5.15625 1.13982 3.73125 1.37732C1.57812 1.73669 0 3.59919 0 5.78357V5.96482C0 7.26169 0.5375 8.50232 1.4875 9.38669Z" fill="#FFF9F9"/>
</svg>
