<svg width="13" height="20" viewBox="0 0 13 20" fill="none" xmlns="http://www.w3.org/2000/svg">
<path d="M3 1.24928e-05C1.98231 -0.00160341 0.970449 0.153549 0 0.460013C2.03041 1.0981 3.80429 2.36734 5.06359 4.08312C6.32289 5.79889 7.00193 7.8717 7.00193 10C7.00193 12.1283 6.32289 14.2011 5.06359 15.9169C3.80429 17.6327 2.03041 18.9019 0 19.54C1.37506 19.9721 2.82729 20.1019 4.25718 19.9204C5.68707 19.7389 7.06083 19.2505 8.28434 18.4886C9.50784 17.7266 10.5522 16.7092 11.3458 15.506C12.1394 14.3028 12.6635 12.9422 12.8822 11.5175C13.101 10.0929 13.0091 8.63776 12.613 7.25189C12.2169 5.86602 11.5259 4.58216 10.5873 3.48827C9.64877 2.39438 8.48481 1.51631 7.17522 0.914234C5.86563 0.312154 4.44136 0.000291332 3 1.24928e-05Z" fill="black"/>
</svg>
