<svg width="22" height="21" viewBox="0 0 22 21" fill="none" xmlns="http://www.w3.org/2000/svg">
<path d="M2.55 16.4941L3.96 17.7797L5.76 16.1476L4.34 14.8529M11 4.55891C7.69 4.55891 5 7.0116 5 10.0296C5 13.0476 7.69 15.5003 11 15.5003C14.31 15.5003 17 13.0476 17 10.0296C17 7.00248 14.31 4.55891 11 4.55891ZM19 10.9414H22V9.11782H19M16.24 16.1476L18.04 17.7797L19.45 16.4941L17.66 14.8529M19.45 3.64713L18.04 2.37063L16.24 4.00272L17.66 5.29745M12 0H10V2.73534H12M5.76 4.00272L3.96 2.37063L2.55 3.64713L4.34 5.29745L5.76 4.00272ZM0 10.9414H3V9.11782H0M12 17.3238H10V20.0592H12" fill="#FFC107"/>
</svg>
