<svg width="40" height="40" viewBox="0 0 40 40" fill="none" xmlns="http://www.w3.org/2000/svg">
<path d="M33.3335 8.33398H18.1335L16.6668 3.33398H6.66683C5.78277 3.33398 4.93493 3.68517 4.30981 4.31029C3.68469 4.93542 3.3335 5.78326 3.3335 6.66732V28.334C3.3335 29.218 3.68469 30.0659 4.30981 30.691C4.93493 31.3161 5.78277 31.6673 6.66683 31.6673H18.3335L20.0002 36.6673H33.3335C34.2176 36.6673 35.0654 36.3161 35.6905 35.691C36.3156 35.0659 36.6668 34.218 36.6668 33.334V11.6673C36.6668 10.7833 36.3156 9.93542 35.6905 9.31029C35.0654 8.68517 34.2176 8.33398 33.3335 8.33398ZM11.9502 24.3173C10.1423 24.3173 8.40842 23.5991 7.13005 22.3208C5.85168 21.0424 5.1335 19.3085 5.1335 17.5007C5.1335 15.6928 5.85168 13.9589 7.13005 12.6805C8.40842 11.4022 10.1423 10.684 11.9502 10.684C13.6835 10.684 15.2668 11.3007 16.5168 12.5007L16.6668 12.5673L14.5835 14.534L14.4835 14.4507C14.0002 14.0007 13.1835 13.4673 11.9502 13.4673C9.76683 13.4673 7.9835 15.284 7.9835 17.5007C7.9835 19.7173 9.76683 21.534 11.9502 21.534C14.2335 21.534 15.2168 20.084 15.4835 19.1007H11.8002V16.5173H18.3835L18.4002 16.6673C18.4668 16.984 18.4835 17.3007 18.4835 17.6507C18.4835 21.5673 15.8335 24.3173 11.9502 24.3173ZM22.0002 21.4673C22.5502 22.5007 23.2335 23.434 23.9835 24.3006L23.0835 25.184L22.0002 21.4673ZM23.2835 20.2007H21.6668L21.1168 18.4673H27.7668C27.7668 18.4673 27.2002 20.6507 25.1668 23.034C24.3002 22.0007 23.6835 20.984 23.2835 20.2007ZM35.0002 33.334C35.0002 33.776 34.8246 34.1999 34.512 34.5125C34.1994 34.8251 33.7755 35.0007 33.3335 35.0007H21.6668L25.0002 31.6673L23.6502 27.0506L25.1835 25.5173L29.6502 30.0007L30.8335 28.784L26.3502 24.3173C27.8502 22.6007 29.0168 20.5673 29.5502 18.4673H31.6668V16.734H25.6002V15.0007H23.8668V16.734H20.6002L18.6335 10.0007H33.3335C33.7755 10.0007 34.1994 10.1762 34.512 10.4888C34.8246 10.8014 35.0002 11.2253 35.0002 11.6673V33.334Z" fill="#FFF9F9"/>
</svg>
